<?xml version="1.0" encoding="utf-8"?>
<svg version="1.1" id="Capa_1" x="0px" y="0px" viewBox="0 0 255.1 255.1" style="enable-background:new 0 0 255.1 255.1;" xmlns="http://www.w3.org/2000/svg">
  <style type="text/css">
	.st0{fill:#83C300;}
	.st1{fill:#FEFEFE;}
</style>
  <circle class="st0" cx="127.6" cy="127.6" r="121.6"/>
  <g>
    <path class="st1" d="M 132.648 141.782 C 132.235 131.087 130.146 113.535 131.782 109.032 C 133.149 105.268 140.069 106.552 141.131 106.347 C 143.482 105.892 145.765 106.05 148.021 105.259 C 157.737 101.85 165.884 96.092 172.887 88.625 C 173.237 88.251 173.578 87.869 173.926 87.493 C 175.459 85.835 175.48 85.814 177.051 87.376 C 185.636 95.916 191.735 105.966 195.104 117.602 C 204.581 150.341 189.441 184.86 158.966 200.117 C 158.128 200.537 157.267 200.914 156.406 201.288 C 154.456 202.134 154.476 202.109 153.015 200.429 C 141.915 187.672 135.692 172.796 133.587 156.085 C 133.031 151.672 132.654 147.261 132.648 141.782 Z"/>
    <path class="st1" d="M 127.668 103.469 C 113.069 103.479 101.308 89.751 91.693 79.308 C 90.324 77.822 90.339 77.742 92.061 76.711 C 95.731 74.516 99.596 72.727 103.613 71.266 C 104.414 70.975 105.234 70.732 106.026 70.418 C 107.272 69.924 107.311 69.769 106.543 68.578 C 106.266 68.149 105.938 67.753 105.633 67.342 C 102.381 62.957 99.126 58.575 95.882 54.184 C 95.376 53.499 94.836 52.819 94.464 52.061 C 93.412 49.92 103.027 48.156 103.586 48.908 C 107.811 54.589 112.071 60.245 116.21 65.988 C 117.198 67.359 118.216 67.793 119.857 67.564 C 125.033 66.84 130.236 66.828 135.411 67.569 C 137.08 67.808 138.069 67.295 139.043 65.949 C 143.294 60.076 147.652 54.281 151.979 48.463 C 152.436 47.849 161.796 50.007 160.75 52.083 C 160.408 52.762 159.935 53.381 159.48 53.997 C 156.235 58.387 152.979 62.769 149.727 67.154 C 149.422 67.565 149.106 67.969 148.817 68.391 C 147.803 69.874 147.811 69.91 149.394 70.499 C 150.113 70.767 150.848 70.99 151.57 71.25 C 155.591 72.702 159.449 74.506 163.128 76.684 C 164.928 77.749 164.943 77.801 163.616 79.243 C 153.87 89.832 141.951 103.592 127.668 103.469 Z"/>
    <path class="st1" d="M 60.157 146.42 C 59.744 157.115 57.655 174.667 59.291 179.17 C 60.658 182.934 67.578 181.65 68.64 181.855 C 70.991 182.31 73.274 182.152 75.53 182.943 C 85.246 186.352 93.393 192.11 100.396 199.577 C 100.746 199.951 101.087 200.333 101.435 200.709 C 102.968 202.367 102.989 202.388 104.56 200.826 C 113.145 192.286 119.244 182.236 122.613 170.6 C 132.09 137.861 116.95 103.342 86.475 88.085 C 85.637 87.665 84.776 87.288 83.915 86.914 C 81.965 86.068 81.985 86.093 80.524 87.773 C 69.424 100.53 63.201 115.406 61.096 132.117 C 60.54 136.53 60.163 140.941 60.157 146.42 Z" transform="matrix(-1, 0, 0, -1, 184.093483, 288.342255)"/>
  </g>
  <path class="st1" d="M 128.555 190.904 C 119.891 190.899 112.91 197.318 107.203 202.201 C 106.391 202.896 106.4 202.933 107.422 203.415 C 109.6 204.441 111.894 205.278 114.278 205.961 C 114.754 206.097 115.24 206.211 115.71 206.357 C 116.45 206.589 122.945 207.585 123.919 207.692 C 126.991 208.03 130.08 208.036 133.151 207.689 C 134.142 207.578 140.511 206.595 141.45 206.319 C 141.877 206.194 142.313 206.09 142.742 205.969 C 145.129 205.29 147.418 204.446 149.602 203.427 C 150.67 202.93 150.679 202.905 149.892 202.231 C 144.107 197.28 137.033 190.846 128.555 190.904 Z" style=""/>
</svg>